<?xml version="1.0" encoding="UTF-8"?>
<!DOCTYPE svg PUBLIC "-//W3C//DTD SVG 1.1//EN" "http://www.w3.org/Graphics/SVG/1.1/DTD/svg11.dtd">
<!-- Creator: CorelDRAW 2020 (64 Bit) -->
<svg xmlns="http://www.w3.org/2000/svg" xml:space="preserve" width="7.4653mm" height="11.4597mm" version="1.1" style="shape-rendering:geometricPrecision; text-rendering:geometricPrecision; image-rendering:optimizeQuality; fill-rule:evenodd; clip-rule:evenodd"
viewBox="0 0 10.31 15.82"
 xmlns:xlink="http://www.w3.org/1999/xlink"
 xmlns:xodm="http://www.corel.com/coreldraw/odm/2003">
 <defs>
  <style type="text/css">
   <![CDATA[
    .fil1 {fill:#8047F8}
    .fil0 {fill:#8047F8;fill-rule:nonzero}
   ]]>
  </style>
 </defs>
 <g id="Camada_x0020_1">
  <metadata id="CorelCorpID_0Corel-Layer"/>
  <path class="fil0" d="M10.16 1.72c-0.14,-0.21 -0.33,-0.21 -0.56,-0.22 -0.03,-0 -0.05,-0 -0.08,-0 -0.02,-0 -0.04,-0 -0.07,-0 -0.09,0 -0.2,0 -0.25,-0.07 -0.06,-0.09 -0.06,-0.26 -0.05,-0.41 0,-0.05 0,-0.09 0,-0.12 -0.01,-0.33 -0.03,-0.68 -0.16,-0.8 -0.1,-0.09 -0.39,-0.08 -0.65,-0.06 -0.09,0 -0.17,0.01 -0.24,0.01l-5.67 0c-0.11,0 -0.23,-0.01 -0.35,-0.02 -0.23,-0.02 -0.45,-0.03 -0.61,0.02 -0.23,0.08 -0.24,0.49 -0.26,0.87l-0 0.02c-0.01,0.32 -0.09,0.56 -0.35,0.54 -0.3,-0.03 -0.61,-0.04 -0.74,0.24 -0.16,0.33 -0.13,0.67 -0.07,1.28 0.01,0.09 0.02,0.18 0.03,0.28l10.17 0c0.01,-0.07 0.01,-0.14 0.02,-0.21 0.05,-0.55 0.09,-1.03 -0.11,-1.33z"/>
  <path class="fil1" d="M0.87 3.87c0.16,2.15 0.32,4.3 0.47,6.46l0 0c0.09,1.17 0.17,2.34 0.26,3.51l0.32 0c0.02,0.18 0.05,0.41 0.07,0.65 0.05,0.48 0.11,1.02 0.16,1.35l0.04 0c0.33,-0.12 2.62,-1.1 2.62,-4.99 -0,-0.01 0,-0.02 0,-0.03l-0.56 0c-0.03,-0 -0.05,-0.01 -0.08,-0.03 -0.02,-0.02 -0.04,-0.04 -0.04,-0.07 -0.05,-0.14 -0.1,-0.28 -0.13,-0.42 -0.33,0.19 -0.6,0.47 -0.75,0.82 -0.15,-0.35 -0.17,-0.75 -0.06,-1.11 0.11,-0.37 0.35,-0.68 0.68,-0.89 0,-1.14 0.43,-2.23 1.19,-3.08l0.01 -0.01c0.02,-0.02 0.05,-0.03 0.08,-0.03 0.02,0 0.03,0 0.05,0.01 0.02,0.01 0.03,0.02 0.04,0.03 0.77,0.85 1.2,1.95 1.18,3.09 0.33,0.2 0.58,0.52 0.69,0.88 0.11,0.37 0.09,0.76 -0.07,1.12 -0.16,-0.35 -0.42,-0.63 -0.75,-0.82 -0.02,0.14 -0.06,0.27 -0.11,0.4 -0.02,0.06 -0.06,0.09 -0.09,0.09l-0.6 0c0,0.01 0,0.01 0,0.02l0 0 0 0c0,0.01 0,0.01 0,0.02 0.01,4 2.44,4.91 2.64,4.98l0.07 0c0.02,-0.32 0.08,-0.75 0.13,-1.17 0.04,-0.29 0.08,-0.58 0.1,-0.82l0.33 0c0.11,-1.47 0.21,-2.94 0.32,-4.41l0 -0 0 -0c0.14,-1.88 0.28,-3.76 0.41,-5.64l-8.61 0c-0.02,0 -0.02,0.05 -0.02,0.09zm4.29 2.13l-0 0 0 0 -0 0z"/>
 </g>
</svg>
